<svg xmlns="http://www.w3.org/2000/svg" version="1.1" xmlns:xlink="http://www.w3.org/1999/xlink" width="198.71" height="198.71"><svg id="SvgjsSvg1001" xmlns="http://www.w3.org/2000/svg" width="198.71" height="198.71" viewBox="0 0 198.71 198.71"><rect width="198.71" height="198.71" fill="#116386"></rect><path d="M150.07,75.91c-7.85-9.56-19.59-15.07-31.95-15h-3.75c-2.06.03-3.72,1.69-3.75,3.75v6.1c0,.69-.56,1.25-1.25,1.25h-16.25c-.69,0-1.25-.56-1.25-1.25v-1.2c0-4.86-3.94-8.8-8.8-8.8h-35c-4.8.05-8.67,3.95-8.7,8.75v15c0,4.81,3.89,8.72,8.7,8.75,24.6,0,28.65,13.8,30.6,20.4l.55,1.85c3.86,10.87,12.06,19.64,22.65,24.2,5.13,2.22,10.66,3.36,16.25,3.35,5.8-.01,11.53-1.2,16.85-3.5,12.09-5.36,20.85-16.21,23.55-29.15,2.47-12.19-.63-24.84-8.45-34.5ZM118.12,114.51c-6.9,0-12.5-5.6-12.5-12.5s5.6-12.5,12.5-12.5,12.5,5.6,12.5,12.5-5.6,12.5-12.5,12.5Z" fill="#fff"></path></svg><style>@media (prefers-color-scheme: light) { :root { filter: none; } }
@media (prefers-color-scheme: dark) { :root { filter: none; } }
</style></svg>