<?xml version="1.0" encoding="UTF-8"?><svg id="Layer_1" xmlns="http://www.w3.org/2000/svg" width="317.55" height="282.15" viewBox="0 0 317.55 282.15"><g opacity=".5"><path d="M181.26,167.7c1.12,1.12,1.68,2.47,1.68,4.06v18.21c0,1.58-.56,2.94-1.68,4.06-1.12,1.12-2.49,1.68-4.11,1.68h-8.51c-1.62,0-2.98-.56-4.08-1.68-1.11-1.12-1.66-2.47-1.66-4.06v-18.21c0-1.58.55-2.94,1.66-4.06,1.1-1.12,2.47-1.68,4.08-1.68h8.51c1.62,0,2.99.56,4.11,1.68ZM176.02,173.3c0-.3-.11-.55-.32-.77-.21-.21-.49-.32-.82-.32h-3.91c-.33,0-.6.11-.82.32-.22.21-.32.47-.32.77v15.14c0,.3.11.55.32.77.21.21.49.32.82.32h3.91c.33,0,.6-.11.82-.32.21-.21.32-.47.32-.77v-15.14Z" fill="#116386"/></g><g opacity=".5"><path d="M181.26,254.14c1.12,1.12,1.68,2.47,1.68,4.06v18.21c0,1.58-.56,2.94-1.68,4.06-1.12,1.12-2.49,1.68-4.11,1.68h-8.51c-1.62,0-2.98-.56-4.08-1.68-1.11-1.12-1.66-2.47-1.66-4.06v-18.21c0-1.58.55-2.94,1.66-4.06,1.1-1.12,2.47-1.68,4.08-1.68h8.51c1.62,0,2.99.56,4.11,1.68ZM176.02,259.73c0-.3-.11-.55-.32-.77-.21-.21-.49-.32-.82-.32h-3.91c-.33,0-.6.11-.82.32-.22.21-.32.47-.32.77v15.14c0,.3.11.55.32.77.21.21.49.32.82.32h3.91c.33,0,.6-.11.82-.32.21-.21.32-.47.32-.77v-15.14Z" fill="#116386"/></g><g opacity=".5"><path d="M141.33,167.7c1.12,1.12,1.68,2.47,1.68,4.06v18.21c0,1.58-.56,2.94-1.68,4.06-1.12,1.12-2.49,1.68-4.11,1.68h-8.51c-1.62,0-2.98-.56-4.08-1.68-1.11-1.12-1.66-2.47-1.66-4.06v-18.21c0-1.58.55-2.94,1.66-4.06,1.1-1.12,2.47-1.68,4.08-1.68h8.51c1.62,0,2.99.56,4.11,1.68ZM136.08,173.3c0-.3-.11-.55-.32-.77-.21-.21-.49-.32-.82-.32h-3.91c-.33,0-.6.11-.82.32-.22.21-.32.47-.32.77v15.14c0,.3.11.55.32.77.21.21.49.32.82.32h3.91c.33,0,.6-.11.82-.32.21-.21.32-.47.32-.77v-15.14Z" fill="#116386"/></g><g opacity=".5"><path d="M101.39,167.7c1.12,1.12,1.68,2.47,1.68,4.06v18.21c0,1.58-.56,2.94-1.68,4.06-1.12,1.12-2.49,1.68-4.11,1.68h-8.51c-1.62,0-2.98-.56-4.08-1.68-1.11-1.12-1.66-2.47-1.66-4.06v-18.21c0-1.58.55-2.94,1.66-4.06,1.1-1.12,2.47-1.68,4.08-1.68h8.51c1.62,0,2.99.56,4.11,1.68ZM96.15,173.3c0-.3-.11-.55-.32-.77-.21-.21-.49-.32-.82-.32h-3.91c-.33,0-.6.11-.82.32-.22.21-.32.47-.32.77v15.14c0,.3.11.55.32.77.21.21.49.32.82.32h3.91c.33,0,.6-.11.82-.32.21-.21.32-.47.32-.77v-15.14Z" fill="#116386"/></g><g opacity=".5"><path d="M19.68,167.7c1.12,1.12,1.68,2.47,1.68,4.06v18.21c0,1.58-.56,2.94-1.68,4.06-1.12,1.12-2.49,1.68-4.11,1.68H7.06c-1.62,0-2.98-.56-4.08-1.68-1.11-1.12-1.66-2.47-1.66-4.06v-18.21c0-1.58.55-2.94,1.66-4.06,1.1-1.12,2.47-1.68,4.08-1.68h8.51c1.62,0,2.99.56,4.11,1.68ZM14.43,173.3c0-.3-.11-.55-.32-.77-.21-.21-.49-.32-.82-.32h-3.91c-.33,0-.6.11-.82.32-.22.21-.32.47-.32.77v15.14c0,.3.11.55.32.77.21.21.49.32.82.32h3.91c.33,0,.6-.11.82-.32.21-.21.32-.47.32-.77v-15.14Z" fill="#116386"/></g><g opacity=".5"><path d="M90.97,94.43l6.09,14.85h-7.42l-3.86-10.24-3.86,10.24h-7.42l6.09-14.85-6.09-14.85h7.42l3.86,10.25,3.86-10.25h7.42l-6.09,14.85Z" fill="#a5def2"/></g><g opacity=".5"><path d="M271.46,94.43l6.09,14.85h-7.42l-3.86-10.24-3.86,10.24h-7.42l6.09-14.85-6.09-14.85h7.42l3.86,10.25,3.86-10.25h7.42l-6.09,14.85Z" fill="#a5def2"/></g><g opacity=".5"><path d="M50.96,14.85l6.09,14.85h-7.42l-3.86-10.24-3.86,10.24h-7.42l6.09-14.85L34.48,0h7.42l3.86,10.25,3.86-10.25h7.42l-6.09,14.85Z" fill="#a5def2"/></g><g opacity=".5"><path d="M311.47,14.85l6.09,14.85h-7.42l-3.86-10.24-3.86,10.24h-7.42l6.09-14.85-6.09-14.85h7.42l3.86,10.25,3.86-10.25h7.42l-6.09,14.85Z" fill="#a5def2"/></g><g opacity=".5"><path d="M179.38,29.7l6.09,14.85h-7.42l-3.86-10.24-3.86,10.24h-7.42l6.09-14.85-6.09-14.85h7.42l3.86,10.25,3.86-10.25h7.42l-6.09,14.85Z" fill="#a5def2"/></g><polygon points="22.68 83.38 11.34 70.81 0 83.38 2.92 86.1 9.34 78.92 9.34 155.65 13.33 155.65 13.33 78.91 19.75 86.1 22.68 83.38" fill="#009cdc" opacity=".5"/><polygon points="205.26 207.77 202.54 210.7 209.73 217.11 134.99 217.11 134.99 204.58 130.99 204.58 130.99 221.1 134.99 221.1 134.99 221.1 209.73 221.1 202.54 227.52 205.26 230.45 217.83 219.11 205.26 207.77" fill="#009cdc" opacity=".5"/><polygon points="135.83 129.79 133.11 132.72 140.3 139.13 95.56 139.13 95.56 139.13 91.57 139.13 91.57 139.13 91.57 143.13 91.57 155.65 95.56 155.65 95.56 143.13 140.3 143.13 133.11 149.54 135.83 152.47 148.4 141.13 135.83 129.79" fill="#009cdc" opacity=".5"/><polygon points="223.47 72.06 227.46 71.82 226.71 54.91 209.96 57.4 210.49 61.36 220.01 59.89 171.21 119.11 171.24 119.13 171.21 119.13 171.21 155.65 175.2 155.65 175.2 120.54 223.09 62.43 223.47 72.06" fill="#009cdc" opacity=".5"/></svg>