<?xml version="1.0" encoding="UTF-8"?><svg id="Layer_1" xmlns="http://www.w3.org/2000/svg" width="623.33" height="171.74" viewBox="0 0 623.33 171.74"><path d="M35.59,167.4L.17,46.17c-.54-1.81.18-3.07,2.17-3.07h26.92c1.45,0,2.89.54,3.07,2.17l21.5,81.49,23.49-81.49c.54-1.63,1.45-2.17,3.25-2.17h24.39c1.81,0,2.71.54,3.25,2.17l23.49,81.49,21.5-81.49c.36-1.63,1.63-2.17,3.07-2.17h26.92c1.99,0,2.71,1.26,2.17,3.07l-35.41,121.24c-.18,1.26-1.81,2.17-3.61,2.17h-26.74c-1.63,0-3.43-.9-3.61-2.17l-23.13-84.74-23.31,84.74c-.18,1.26-1.99,2.17-3.61,2.17h-26.74c-1.81,0-3.43-.9-3.61-2.17Z" fill="#116386"/><path d="M196.21,166.68V43.28c0-1.63,1.26-2.89,2.89-2.89h24.57c1.63,0,2.89,1.26,2.89,2.89v50.77c5.06-9.03,12.83-15.18,25.3-15.18,18.25,0,31.98,13.73,31.98,36.68v51.13c0,1.63-1.45,2.89-3.07,2.89h-24.39c-1.63,0-2.89-1.26-2.89-2.89v-43.55c0-11.02-4.52-16.44-13.37-16.44s-13.55,5.42-13.55,16.44v43.55c0,1.63-1.26,2.89-2.89,2.89h-24.57c-1.63,0-2.89-1.26-2.89-2.89Z" fill="#116386"/><path d="M300.82,83.93c0-1.63,1.26-2.89,2.89-2.89h24.93c1.63,0,2.89,1.26,2.89,2.89v82.75c0,1.63-1.26,2.89-2.89,2.89h-24.93c-1.63,0-2.89-1.26-2.89-2.89v-82.75Z" fill="#116386"/><path d="M345.63,156.38c-.9-1.08-.72-3.43.72-5.42l7.95-11.2c1.63-2.53,3.25-1.99,4.7-1.08,8.13,5.42,14.09,7.95,19.69,7.95,3.98,0,6.5-1.08,6.5-4.34,0-2.53-1.63-3.79-7.05-6.14l-11.56-4.52c-11.74-4.52-19.15-12.65-19.15-24.75,0-17.89,15.36-28.01,32.7-28.01,12.11,0,23.31,4.88,31.26,14.27,1.08,1.26.72,2.71-.18,3.61l-10.3,12.29c-1.08,1.26-2.53,1.08-4.16,0-5.78-4.34-10.48-6.69-15-6.69-4.88,0-5.6,2.71-5.6,4.52,0,2.35,2.53,4.34,5.6,5.42l14.09,5.6c11.02,4.34,19.69,12.47,19.51,25.84-.36,18.61-16.26,28.01-34.69,28.01-15,0-27.1-5.96-35.05-15.36Z" fill="#116386"/><path d="M433.26,141.93v-37.58h-11.02c-1.63,0-2.71-1.26-2.71-2.89v-17.53c0-1.63,1.08-2.89,2.71-2.89h11.02v-20.6c0-1.63,1.26-2.89,2.89-2.89h24.93c1.63,0,2.89,1.26,2.89,2.89v20.6h13.19c1.63,0,2.89,1.26,2.89,2.89v17.53c0,1.63-1.26,2.89-2.89,2.89h-13.19v34.33c0,4.34,3.25,6.87,7.59,6.87,1.63,0,3.07.18,5.6,0,1.45-.18,3.07.72,3.07,2.53v16.62c0,4.7-10.12,5.96-16.62,5.96-15,0-30.35-6.68-30.35-28.73Z" fill="#116386"/><path d="M491.62,166.68V43.28c0-1.63,1.26-2.89,2.89-2.89h24.75c1.63,0,2.89,1.26,2.89,2.89v123.41c0,1.63-1.26,2.89-2.89,2.89h-24.75c-1.63,0-2.89-1.26-2.89-2.89Z" fill="#116386"/><path d="M534.62,124.94c0-26.02,18.25-46.07,45.89-46.07s42.82,19.69,42.82,42.46c0,9.58-2.35,15.54-11.2,15.54h-47.88c3.25,8.13,11.02,11.2,22.04,11.2,5.06,0,10.84-.18,18.25-4.16,1.45-.72,2.35-.36,3.25,1.08l8.31,11.56c.72,1.08.9,2.53-.9,4.16-7.41,7.59-18.79,11.02-31.44,11.02-29.09,0-49.14-19.51-49.14-46.8ZM596.41,116.09c-1.81-9.4-8.31-12.47-15.72-12.47-7.77,0-14.64,3.43-16.98,12.47h32.7Z" fill="#116386"/><path d="M342.63,12.49c-6.47-7.88-16.15-12.42-26.34-12.37h-3.09c-1.7.02-3.07,1.39-3.09,3.09v5.03c0,.57-.46,1.03-1.03,1.03h-13.4c-.57,0-1.03-.46-1.03-1.03v-.99c0-4.01-3.25-7.25-7.25-7.25h-28.85c-3.96.04-7.15,3.25-7.17,7.21v12.37c0,3.97,3.2,7.19,7.17,7.21,20.28,0,23.62,11.38,25.23,16.82l.45,1.53c3.18,8.96,9.94,16.19,18.67,19.95,4.23,1.83,8.79,2.77,13.4,2.76,4.78-.01,9.5-.99,13.89-2.89,9.96-4.42,17.19-13.36,19.41-24.03,2.04-10.04-.52-20.48-6.97-28.44ZM316.29,44.31c-5.69,0-10.3-4.61-10.3-10.3s4.61-10.3,10.3-10.3,10.3,4.61,10.3,10.3-4.61,10.3-10.3,10.3Z" fill="#009cdc"/></svg>