<?xml version="1.0" encoding="UTF-8"?><svg id="Layer_1" xmlns="http://www.w3.org/2000/svg" width="623.33" height="217.05" viewBox="0 0 623.33 217.05"><path d="M171.53,216.22l-5.65-8.78h-2.84v8.6c0,.32-.22.54-.54.54h-2.99c-.32,0-.5-.22-.5-.54v-24.12c0-.32.18-.54.5-.54h7.27c5.72,0,8.6,3.31,8.6,8.03,0,3.78-1.84,6.62-5.51,7.63l5.83,8.89c.25.4.07.65-.36.65h-3.17c-.29,0-.5-.11-.65-.36ZM166.6,203.84c2.66,0,4.9-1.04,4.9-4.43s-2.23-4.43-4.9-4.43h-3.56v8.86h3.56Z" fill="#009cdc"/><path d="M177.58,207.69c0-5.18,3.6-9.18,8.96-9.18s8.35,4,8.35,8.39c0,1.55-.32,2.3-1.66,2.3h-11.88c.47,2.81,2.56,4.68,6.05,4.68,1.73,0,3.13-.43,4.54-1.37.22-.14.43-.11.58.11l1.01,1.37c.22.29.14.5-.14.79-1.55,1.51-3.82,2.23-6.3,2.23-5.76,0-9.5-4.07-9.5-9.32ZM191.44,206.4c-.22-2.88-2.12-4.61-4.9-4.61s-4.82,1.69-5.22,4.61h10.11Z" fill="#009cdc"/><path d="M199.65,216.04v-14h-2.12c-.32,0-.5-.22-.5-.54v-2.02c0-.32.18-.54.5-.54h2.12v-3.31c0-3.6,1.94-5.36,5.4-5.36.83,0,1.51.07,2.23.43.25.11.32.25.32.5v2.45c0,.25-.22.29-.43.25-.54-.07-.97-.14-1.37-.14-1.87,0-2.27,1.08-2.27,2.52v2.66h3.56c.32,0,.5.22.5.54v2.02c0,.32-.18.54-.5.54h-3.56v14c0,.32-.18.54-.5.54h-2.88c-.32,0-.5-.22-.5-.54Z" fill="#009cdc"/><path d="M209.01,207.69c0-5.18,3.6-9.18,8.96-9.18s8.35,4,8.35,8.39c0,1.55-.32,2.3-1.66,2.3h-11.88c.47,2.81,2.56,4.68,6.05,4.68,1.73,0,3.13-.43,4.54-1.37.22-.14.43-.11.58.11l1.01,1.37c.22.29.14.5-.14.79-1.55,1.51-3.82,2.23-6.3,2.23-5.76,0-9.5-4.07-9.5-9.32ZM222.87,206.4c-.22-2.88-2.12-4.61-4.9-4.61s-4.82,1.69-5.22,4.61h10.11Z" fill="#009cdc"/><path d="M229.89,216.04v-16.56c0-.32.18-.54.5-.54h2.74c.32,0,.5.14.5.58l.11,2.12c.65-1.76,1.8-3.13,3.92-3.13.79,0,1.33.18,1.62.4.25.18.32.36.32.68v2.3c0,.4-.25.5-.68.4-.43-.14-.83-.18-1.3-.18-2.77,0-3.85,2.16-3.85,4.43v9.5c0,.32-.18.54-.5.54h-2.88c-.32,0-.5-.22-.5-.54Z" fill="#009cdc"/><path d="M241.3,207.69c0-5.18,3.6-9.18,8.96-9.18s8.35,4,8.35,8.39c0,1.55-.32,2.3-1.66,2.3h-11.88c.47,2.81,2.56,4.68,6.05,4.68,1.73,0,3.13-.43,4.54-1.37.22-.14.43-.11.58.11l1.01,1.37c.22.29.14.5-.14.79-1.55,1.51-3.82,2.23-6.3,2.23-5.76,0-9.5-4.07-9.5-9.32ZM255.16,206.4c-.22-2.88-2.12-4.61-4.9-4.61s-4.82,1.69-5.22,4.61h10.12Z" fill="#009cdc"/><path d="M261.28,207.69c0-5.18,3.6-9.18,8.96-9.18s8.35,4,8.35,8.39c0,1.55-.32,2.3-1.66,2.3h-11.88c.47,2.81,2.56,4.68,6.05,4.68,1.73,0,3.13-.43,4.54-1.37.22-.14.43-.11.58.11l1.01,1.37c.22.29.14.5-.14.79-1.55,1.51-3.82,2.23-6.3,2.23-5.76,0-9.5-4.07-9.5-9.32ZM275.14,206.4c-.22-2.88-2.12-4.61-4.9-4.61s-4.82,1.69-5.22,4.61h10.11Z" fill="#009cdc"/><path d="M279.82,214.6c0-1.37,1.12-2.48,2.48-2.48s2.45,1.12,2.45,2.48-1.12,2.45-2.45,2.45-2.48-1.08-2.48-2.45Z" fill="#009cdc"/><path d="M294.22,213.16c-.18-.25-.18-.5.07-.79l1.51-1.73c.29-.32.58-.29.83-.04,1.48,1.69,3.02,2.7,5.4,2.7,2.63,0,4.25-1.26,4.25-3.46s-1.58-3.02-3.71-4.03l-3.06-1.44c-2.66-1.26-4.79-3.17-4.79-6.55,0-4.25,3.31-6.73,7.42-6.73,2.95,0,5.25,1.19,7.09,3.28.29.29.25.54,0,.83l-1.48,1.76c-.25.32-.54.32-.83.07-1.48-1.48-2.84-2.23-4.64-2.23-2.12,0-3.64,1.08-3.64,3.02,0,1.66,1.01,2.48,3.1,3.49l2.77,1.3c2.84,1.37,5.69,3.1,5.69,7.24,0,4.72-3.74,7.16-8.13,7.16-3.78,0-6.41-1.8-7.85-3.85Z" fill="#009cdc"/><path d="M313.15,207.73c0-5.25,3.92-9.21,9.18-9.21,2.88,0,5.22,1.19,6.73,3.06.22.29.22.54,0,.76l-1.62,1.55c-.29.29-.65.22-.86-.04-1.04-1.04-2.23-1.73-4.07-1.73-3.31,0-5.62,2.38-5.62,5.62s2.3,5.69,5.69,5.69c1.8,0,2.99-.68,4-1.73.25-.25.61-.32.9-.04l1.62,1.55c.22.22.22.47,0,.76-1.51,1.87-3.85,3.06-6.7,3.06-5.29,0-9.25-4-9.25-9.29Z" fill="#009cdc"/><path d="M331.19,207.76c0-5.22,3.89-9.25,9.14-9.25s9.11,4.03,9.11,9.25-3.89,9.25-9.11,9.25-9.14-4.03-9.14-9.25ZM340.33,213.41c3.02,0,5.36-2.27,5.36-5.65s-2.34-5.65-5.36-5.65-5.4,2.27-5.4,5.65,2.34,5.65,5.4,5.65Z" fill="#009cdc"/><path d="M353.01,216.04v-16.56c0-.32.18-.54.5-.54h2.74c.32,0,.5.14.5.58l.11,2.12c.65-1.76,1.8-3.13,3.92-3.13.79,0,1.33.18,1.62.4.25.18.32.36.32.68v2.3c0,.4-.25.5-.68.4-.43-.14-.83-.18-1.3-.18-2.77,0-3.85,2.16-3.85,4.43v9.5c0,.32-.18.54-.5.54h-2.88c-.32,0-.5-.22-.5-.54Z" fill="#009cdc"/><path d="M364.42,207.69c0-5.18,3.6-9.18,8.96-9.18s8.35,4,8.35,8.39c0,1.55-.32,2.3-1.66,2.3h-11.88c.47,2.81,2.56,4.68,6.05,4.68,1.73,0,3.13-.43,4.54-1.37.22-.14.43-.11.58.11l1.01,1.37c.22.29.14.5-.14.79-1.55,1.51-3.82,2.23-6.3,2.23-5.76,0-9.5-4.07-9.5-9.32ZM378.28,206.4c-.22-2.88-2.12-4.61-4.9-4.61s-4.82,1.69-5.22,4.61h10.12Z" fill="#009cdc"/><path d="M382.96,214.6c0-1.37,1.12-2.48,2.48-2.48s2.45,1.12,2.45,2.48-1.12,2.45-2.45,2.45-2.48-1.08-2.48-2.45Z" fill="#009cdc"/><path d="M397.46,204.09c0-7.34,5.58-13,12.89-13,3.56,0,6.44,1.33,8.67,3.46.25.25.29.5.04.79l-1.84,1.98c-.22.25-.47.25-.76.04-1.66-1.44-3.64-2.3-6.08-2.3-5.04,0-8.86,3.82-8.86,9.04s3.82,9,8.86,9c2.45,0,4.43-.86,6.08-2.3.29-.25.54-.22.76,0l1.84,2.02c.29.25.22.5-.04.76-2.23,2.16-5.11,3.49-8.67,3.49-7.31,0-12.89-5.62-12.89-12.96Z" fill="#009cdc"/><path d="M423.17,216.04v-24.66c0-.32.18-.54.5-.54h2.88c.32,0,.5.22.5.54v24.66c0,.32-.18.54-.5.54h-2.88c-.32,0-.5-.22-.5-.54Z" fill="#009cdc"/><path d="M430.62,207.76c0-5.22,3.89-9.25,9.14-9.25s9.11,4.03,9.11,9.25-3.89,9.25-9.11,9.25-9.14-4.03-9.14-9.25ZM439.76,213.41c3.02,0,5.36-2.27,5.36-5.65s-2.34-5.65-5.36-5.65-5.4,2.27-5.4,5.65,2.34,5.65,5.4,5.65Z" fill="#009cdc"/><path d="M451.54,207.73c0-5.25,3.92-9.21,9.18-9.21,2.88,0,5.22,1.19,6.73,3.06.22.29.22.54,0,.76l-1.62,1.55c-.29.29-.65.22-.86-.04-1.04-1.04-2.23-1.73-4.07-1.73-3.31,0-5.62,2.38-5.62,5.62s2.3,5.69,5.69,5.69c1.8,0,2.99-.68,4-1.73.25-.25.61-.32.9-.04l1.62,1.55c.22.22.22.47,0,.76-1.51,1.87-3.85,3.06-6.7,3.06-5.29,0-9.25-4-9.25-9.29Z" fill="#009cdc"/><path d="M471.19,216.04v-24.66c0-.32.18-.54.5-.54h2.88c.32,0,.5.22.5.54v15.69l6.95-7.85c.18-.22.36-.29.61-.29h3.38c.43,0,.5.29.22.61l-6.23,6.88,7.2,9.54c.22.32.11.61-.32.61h-3.1c-.29,0-.47-.07-.65-.32l-5.47-7.16-2.59,2.84v4.1c0,.32-.18.54-.5.54h-2.88c-.32,0-.5-.22-.5-.54Z" fill="#009cdc"/><path d="M489.26,214.6c0-1.37,1.12-2.48,2.48-2.48s2.45,1.12,2.45,2.48-1.12,2.45-2.45,2.45-2.48-1.08-2.48-2.45Z" fill="#009cdc"/><path d="M503.77,204.09c0-7.34,5.58-13,12.89-13,3.56,0,6.44,1.33,8.67,3.46.25.25.29.5.04.79l-1.84,1.98c-.22.25-.47.25-.76.04-1.66-1.44-3.64-2.3-6.08-2.3-5.04,0-8.85,3.82-8.85,9.04s3.82,9,8.85,9c2.45,0,4.43-.86,6.08-2.3.29-.25.54-.22.76,0l1.84,2.02c.29.25.22.5-.04.76-2.23,2.16-5.11,3.49-8.67,3.49-7.31,0-12.89-5.62-12.89-12.96Z" fill="#009cdc"/><path d="M527.49,207.76c0-5.22,3.89-9.25,9.14-9.25s9.11,4.03,9.11,9.25-3.89,9.25-9.11,9.25-9.14-4.03-9.14-9.25ZM536.64,213.41c3.02,0,5.36-2.27,5.36-5.65s-2.34-5.65-5.36-5.65-5.4,2.27-5.4,5.65,2.34,5.65,5.4,5.65Z" fill="#009cdc"/><path d="M548.41,207.76c0-5.22,3.46-9.25,8.5-9.25,2.92,0,5,1.3,6.23,3.35l.07-2.38c0-.32.18-.54.5-.54h2.63c.32,0,.5.22.5.54v16.56c0,.32-.18.54-.5.54h-2.63c-.32,0-.5-.22-.5-.54l-.07-2.34c-1.26,2.05-3.35,3.31-6.23,3.31-5.04,0-8.5-4-8.5-9.25ZM557.66,213.45c3.13,0,5.33-2.27,5.33-5.65s-2.2-5.72-5.33-5.72-5.47,2.3-5.47,5.69,2.3,5.69,5.47,5.69Z" fill="#009cdc"/><path d="M570.41,207.73c0-5.25,3.92-9.21,9.18-9.21,2.88,0,5.22,1.19,6.73,3.06.22.29.22.54,0,.76l-1.62,1.55c-.29.29-.65.22-.86-.04-1.04-1.04-2.23-1.73-4.07-1.73-3.31,0-5.62,2.38-5.62,5.62s2.3,5.69,5.69,5.69c1.8,0,2.99-.68,4-1.73.25-.25.61-.32.9-.04l1.62,1.55c.22.22.22.47,0,.76-1.51,1.87-3.85,3.06-6.7,3.06-5.29,0-9.25-4-9.25-9.29Z" fill="#009cdc"/><path d="M590.06,216.04v-24.66c0-.32.18-.54.5-.54h2.88c.32,0,.5.22.5.54v10.29c1.01-1.8,2.77-3.17,5.54-3.17,3.74,0,6.41,2.59,6.41,7.24v10.29c0,.32-.22.54-.54.54h-2.84c-.32,0-.5-.22-.5-.54v-9.58c0-2.77-1.37-4.36-3.85-4.36s-4.21,1.58-4.21,4.36v9.58c0,.32-.18.54-.5.54h-2.88c-.32,0-.5-.22-.5-.54Z" fill="#009cdc"/><path d="M609.43,214.6c0-1.37,1.12-2.48,2.48-2.48s2.45,1.12,2.45,2.48-1.12,2.45-2.45,2.45-2.48-1.08-2.48-2.45Z" fill="#009cdc"/><path d="M35.59,167.4L.17,46.17c-.54-1.81.18-3.07,2.17-3.07h26.92c1.45,0,2.89.54,3.07,2.17l21.5,81.49,23.49-81.49c.54-1.63,1.45-2.17,3.25-2.17h24.39c1.81,0,2.71.54,3.25,2.17l23.49,81.49,21.5-81.49c.36-1.63,1.63-2.17,3.07-2.17h26.92c1.99,0,2.71,1.26,2.17,3.07l-35.41,121.24c-.18,1.26-1.81,2.17-3.61,2.17h-26.74c-1.63,0-3.43-.9-3.61-2.17l-23.13-84.74-23.31,84.74c-.18,1.26-1.99,2.17-3.61,2.17h-26.74c-1.81,0-3.43-.9-3.61-2.17Z" fill="#fff"/><path d="M196.21,166.68V43.28c0-1.63,1.26-2.89,2.89-2.89h24.57c1.63,0,2.89,1.26,2.89,2.89v50.77c5.06-9.03,12.83-15.18,25.3-15.18,18.25,0,31.98,13.73,31.98,36.68v51.13c0,1.63-1.45,2.89-3.07,2.89h-24.39c-1.63,0-2.89-1.26-2.89-2.89v-43.55c0-11.02-4.52-16.44-13.37-16.44s-13.55,5.42-13.55,16.44v43.55c0,1.63-1.26,2.89-2.89,2.89h-24.57c-1.63,0-2.89-1.26-2.89-2.89Z" fill="#fff"/><path d="M300.82,83.93c0-1.63,1.26-2.89,2.89-2.89h24.93c1.63,0,2.89,1.26,2.89,2.89v82.75c0,1.63-1.26,2.89-2.89,2.89h-24.93c-1.63,0-2.89-1.26-2.89-2.89v-82.75Z" fill="#fff"/><path d="M345.63,156.38c-.9-1.08-.72-3.43.72-5.42l7.95-11.2c1.63-2.53,3.25-1.99,4.7-1.08,8.13,5.42,14.09,7.95,19.69,7.95,3.98,0,6.5-1.08,6.5-4.34,0-2.53-1.63-3.79-7.05-6.14l-11.56-4.52c-11.74-4.52-19.15-12.65-19.15-24.75,0-17.89,15.36-28.01,32.7-28.01,12.11,0,23.31,4.88,31.26,14.27,1.08,1.26.72,2.71-.18,3.61l-10.3,12.29c-1.08,1.26-2.53,1.08-4.16,0-5.78-4.34-10.48-6.69-15-6.69-4.88,0-5.6,2.71-5.6,4.52,0,2.35,2.53,4.34,5.6,5.42l14.09,5.6c11.02,4.34,19.69,12.47,19.51,25.84-.36,18.61-16.26,28.01-34.69,28.01-15,0-27.1-5.96-35.05-15.36Z" fill="#fff"/><path d="M433.26,141.93v-37.58h-11.02c-1.63,0-2.71-1.26-2.71-2.89v-17.53c0-1.63,1.08-2.89,2.71-2.89h11.02v-20.6c0-1.63,1.26-2.89,2.89-2.89h24.93c1.63,0,2.89,1.26,2.89,2.89v20.6h13.19c1.63,0,2.89,1.26,2.89,2.89v17.53c0,1.63-1.26,2.89-2.89,2.89h-13.19v34.33c0,4.34,3.25,6.87,7.59,6.87,1.63,0,3.07.18,5.6,0,1.45-.18,3.07.72,3.07,2.53v16.62c0,4.7-10.12,5.96-16.62,5.96-15,0-30.35-6.68-30.35-28.73Z" fill="#fff"/><path d="M491.62,166.68V43.28c0-1.63,1.26-2.89,2.89-2.89h24.75c1.63,0,2.89,1.26,2.89,2.89v123.41c0,1.63-1.26,2.89-2.89,2.89h-24.75c-1.63,0-2.89-1.26-2.89-2.89Z" fill="#fff"/><path d="M534.62,124.94c0-26.02,18.25-46.07,45.89-46.07s42.82,19.69,42.82,42.46c0,9.58-2.35,15.54-11.2,15.54h-47.88c3.25,8.13,11.02,11.2,22.04,11.2,5.06,0,10.84-.18,18.25-4.16,1.45-.72,2.35-.36,3.25,1.08l8.31,11.56c.72,1.08.9,2.53-.9,4.16-7.41,7.59-18.79,11.02-31.44,11.02-29.09,0-49.14-19.51-49.14-46.8ZM596.41,116.09c-1.81-9.4-8.31-12.47-15.72-12.47-7.77,0-14.64,3.43-16.98,12.47h32.7Z" fill="#fff"/><path d="M342.63,12.49c-6.47-7.88-16.15-12.42-26.34-12.37h-3.09c-1.7.02-3.07,1.39-3.09,3.09v5.03c0,.57-.46,1.03-1.03,1.03h-13.4c-.57,0-1.03-.46-1.03-1.03v-.99c0-4.01-3.25-7.25-7.25-7.25h-28.85c-3.96.04-7.15,3.25-7.17,7.21v12.37c0,3.97,3.2,7.19,7.17,7.21,20.28,0,23.62,11.38,25.23,16.82l.45,1.53c3.18,8.96,9.94,16.19,18.67,19.95,4.23,1.83,8.79,2.77,13.4,2.76,4.78-.01,9.5-.99,13.89-2.89,9.96-4.42,17.19-13.36,19.41-24.03,2.04-10.04-.52-20.48-6.97-28.44ZM316.29,44.31c-5.69,0-10.3-4.61-10.3-10.3s4.61-10.3,10.3-10.3,10.3,4.61,10.3,10.3-4.61,10.3-10.3,10.3Z" fill="#009cdc"/></svg>